<svg width="229" height="63" viewBox="0 0 229 63" fill="none" xmlns="http://www.w3.org/2000/svg">
<path d="M15.3997 54.3351L13.7114 55.5178L8.67109 49.176L10.3593 47.9932L15.3997 54.3351Z" fill="#2F2325" stroke="#2F2325" stroke-width="0.7" stroke-linecap="round" stroke-linejoin="round"/>
<path d="M10.0173 49.4367L8.75757 47.8517L19.7654 40.1398L21.0252 41.7249L10.0173 49.4367Z" fill="#2F2325" stroke="#2F2325" stroke-width="0.7" stroke-linecap="round" stroke-linejoin="round"/>
<path d="M11.1389 47.2534C10.987 47.0623 10.7965 46.9011 10.5783 46.7792C10.3601 46.6572 10.1184 46.5768 9.86703 46.5426C9.61569 46.5084 9.35963 46.521 9.11349 46.5797C8.86734 46.6385 8.63595 46.7422 8.43253 46.885L8.28594 46.9972C8.02511 47.2205 7.83451 47.5068 7.73487 47.8248C7.63524 48.1427 7.63038 48.4803 7.72083 48.8007C7.81128 49.1211 7.99357 49.412 8.24787 49.6419C8.50218 49.8718 8.81876 50.0319 9.16319 50.1046C9.50761 50.1774 9.86668 50.16 10.2014 50.0546C10.536 49.9491 10.8335 49.7594 11.0614 49.5063C11.2893 49.2531 11.4388 48.9462 11.4939 48.6188C11.5489 48.2914 11.5072 47.9561 11.3734 47.6493C11.3129 47.5088 11.2341 47.3758 11.1389 47.2534Z" fill="#F4E0FA" stroke="#2F2325" stroke-width="0.7" stroke-linecap="round" stroke-linejoin="round"/>
<path d="M15.5436 52.3203C15.2576 51.9216 14.8147 51.6459 14.3123 51.5538C13.8098 51.4617 13.289 51.5607 12.8643 51.8291C12.8124 51.8608 12.7628 51.8968 12.7132 51.9328C12.4409 52.1438 12.2355 52.4209 12.1192 52.7339C12.003 53.0469 11.9804 53.3838 12.0539 53.708C12.1274 54.0322 12.2942 54.3313 12.5361 54.5727C12.7781 54.8141 13.0859 54.9886 13.4261 55.0772C13.7663 55.1658 14.1259 55.1651 14.4657 55.0752C14.8056 54.9853 15.1126 54.8096 15.3535 54.5673C15.5944 54.325 15.7599 54.0252 15.832 53.7007C15.904 53.3762 15.88 53.0394 15.7623 52.7268C15.7077 52.5833 15.6342 52.4468 15.5436 52.3203V52.3203Z" fill="#F4E0FA" stroke="#2F2325" stroke-width="0.7" stroke-linecap="round" stroke-linejoin="round"/>
<path d="M21.3405 54.5888L18.1668 54.8814L18.0469 53.7351L21.2206 53.4424L21.3405 54.5888Z" fill="#2F2325" stroke="#2F2325" stroke-width="0.7" stroke-linecap="round" stroke-linejoin="round"/>
<path d="M21.5335 53.1144L19.9684 53.2584L20.1511 54.9989L21.7162 54.8549C21.962 54.8324 22.1883 54.7192 22.3452 54.5401C22.5021 54.361 22.5768 54.1307 22.5529 53.8999V53.8999C22.5284 53.669 22.4073 53.4565 22.2162 53.3093C22.0251 53.162 21.7796 53.0919 21.5335 53.1144V53.1144Z" fill="#F4E0FA" stroke="#2F2325" stroke-width="0.7" stroke-linecap="round" stroke-linejoin="round"/>
<path d="M18.3987 53.8555C18.1509 53.5087 17.8326 53.2112 17.4621 52.98C17.0916 52.7488 16.6761 52.5885 16.2396 52.5083C15.803 52.428 15.3539 52.4294 14.9179 52.5123C14.4819 52.5953 14.0676 52.7581 13.6987 52.9916C13.6062 53.0509 13.5183 53.1123 13.4326 53.1779C12.9558 53.5479 12.5961 54.0335 12.3927 54.5819C12.1894 55.1304 12.15 55.7207 12.279 56.2886C12.408 56.8566 12.7004 57.3805 13.1244 57.8033C13.5484 58.2262 14.0878 58.5318 14.6839 58.6869C15.2799 58.8421 15.9099 58.8408 16.5053 58.6833C17.1006 58.5257 17.6386 58.218 18.0606 57.7934C18.4827 57.3689 18.7727 56.8438 18.8991 56.2753C19.0255 55.7068 18.9835 55.1167 18.7776 54.5691C18.6843 54.317 18.5569 54.0772 18.3987 53.8555Z" fill="#F4E0FA" stroke="#2F2325" stroke-width="0.7" stroke-linecap="round" stroke-linejoin="round"/>
<path d="M22.0433 57.1544L17.8484 54.2091L17.1741 55.0539L21.3689 57.9971L22.0433 57.1544Z" fill="#2F2325" stroke="#2F2325" stroke-width="0.7" stroke-linecap="round" stroke-linejoin="round"/>
<path d="M22.4785 57.1099L21.3261 56.2905L20.3022 57.5609L21.4546 58.3719C21.6356 58.4991 21.8629 58.5535 22.0867 58.5234C22.3104 58.4932 22.5122 58.3808 22.6477 58.211V58.211C22.7776 58.0429 22.8326 57.8338 22.801 57.6282C22.7695 57.4227 22.6538 57.2367 22.4785 57.1099V57.1099Z" fill="#F4E0FA" stroke="#2F2325" stroke-width="0.7" stroke-linecap="round" stroke-linejoin="round"/>
<path d="M16.626 55.1174C16.5727 54.9 16.5894 54.6726 16.674 54.464C16.7586 54.2555 16.9072 54.0752 17.101 53.9461C17.2949 53.817 17.5252 53.7448 17.7628 53.7388C18.0004 53.7327 18.2345 53.7931 18.4355 53.9121C18.6365 54.0312 18.7953 54.2036 18.8918 54.4076C18.9883 54.6115 19.0181 54.8377 18.9774 55.0576C18.9368 55.2774 18.8275 55.481 18.6634 55.6424C18.4993 55.8039 18.2879 55.916 18.0559 55.9644C17.7468 56.029 17.4229 55.9762 17.1551 55.8175C16.8872 55.6589 16.6971 55.4072 16.626 55.1174Z" fill="#F4E0FA" stroke="#2F2325" stroke-width="0.7" stroke-linecap="round" stroke-linejoin="round"/>
<path d="M14.4023 60.1145L13.7799 56.0745L12.8575 56.1973L13.4777 60.2373L14.4023 60.1145Z" fill="#2F2325" stroke="#2F2325" stroke-width="0.7" stroke-linecap="round" stroke-linejoin="round"/>
<path d="M14.6842 60.3284L14.5151 59.2168L13.1145 59.4052L13.2837 60.5147C13.2967 60.6012 13.3277 60.6845 13.375 60.7597C13.4223 60.8349 13.4849 60.9007 13.5592 60.9532C13.6336 61.0057 13.7182 61.0439 13.8083 61.0657C13.8984 61.0875 13.9922 61.0924 14.0843 61.0801V61.0801C14.27 61.0549 14.4374 60.9617 14.5498 60.8207C14.6623 60.6798 14.7106 60.5028 14.6842 60.3284V60.3284Z" fill="#F4E0FA" stroke="#2F2325" stroke-width="0.7" stroke-linecap="round" stroke-linejoin="round"/>
<path d="M12.4966 55.9327C12.6027 55.7773 12.7556 55.655 12.9358 55.5812C13.1159 55.5074 13.3154 55.4853 13.5089 55.5179C13.7024 55.5504 13.8813 55.636 14.023 55.764C14.1647 55.8919 14.2628 56.0564 14.305 56.2367C14.3472 56.4169 14.3315 56.6049 14.26 56.7768C14.1885 56.9487 14.0642 57.0969 13.9031 57.2026C13.7419 57.3083 13.551 57.3667 13.3544 57.3706C13.1579 57.3745 12.9645 57.3235 12.7988 57.2243C12.5765 57.0905 12.4198 56.8793 12.3631 56.6372C12.3064 56.395 12.3544 56.1416 12.4966 55.9327V55.9327Z" fill="#F4E0FA" stroke="#2F2325" stroke-width="0.7" stroke-linecap="round" stroke-linejoin="round"/>
<path d="M18.5544 59.5767L15.7578 55.4181L14.8083 55.9771L17.6026 60.1379L18.5544 59.5767Z" fill="#2F2325" stroke="#2F2325" stroke-width="0.7" stroke-linecap="round" stroke-linejoin="round"/>
<path d="M18.976 59.6784L18.2115 58.535L16.7658 59.3819L17.5326 60.5275C17.6533 60.7067 17.8446 60.8338 18.0648 60.881C18.2849 60.9282 18.5161 60.8917 18.7076 60.7794V60.7794C18.8984 60.6665 19.0337 60.4873 19.084 60.2809C19.1343 60.0746 19.0955 59.8579 18.976 59.6784V59.6784Z" fill="#F4E0FA" stroke="#2F2325" stroke-width="0.7" stroke-linecap="round" stroke-linejoin="round"/>
<path d="M14.267 55.8543C14.3005 55.6338 14.4029 55.4276 14.5614 55.2618C14.7198 55.0961 14.9272 54.9782 15.157 54.9232C15.3869 54.8683 15.629 54.8786 15.8526 54.953C16.0762 55.0274 16.2713 55.1625 16.413 55.3411C16.5547 55.5197 16.6368 55.7338 16.6487 55.9562C16.6606 56.1787 16.6019 56.3994 16.48 56.5905C16.3581 56.7816 16.1786 56.9344 15.964 57.0295C15.7495 57.1246 15.5098 57.1578 15.2752 57.1247C14.9623 57.0813 14.6805 56.9232 14.4916 56.685C14.3026 56.4469 14.2219 56.1482 14.267 55.8543V55.8543Z" fill="#F4E0FA" stroke="#2F2325" stroke-width="0.7" stroke-linecap="round" stroke-linejoin="round"/>
<path d="M33.0015 56.528L32.9221 30.3934L31.313 30.2252L29.3064 30.5616L29.508 55.9825L31.2548 56.3098L33.0015 56.528Z" fill="#2F2325" stroke="#2F2325" stroke-width="0.7" stroke-linecap="round" stroke-linejoin="round"/>
<path d="M39.0345 20.0676C37.5468 17.1042 33.5358 9.47926 42.7869 9.13132C52.038 8.78337 52.748 24.1177 58.2842 25.4085C54.5679 27.4513 43.6305 29.2149 39.0345 20.0676Z" fill="#2F2325"/>
<path d="M22.4011 18.4752C24.3339 15.6719 29.4433 8.50196 20.188 8.30319C10.9328 8.10442 7.99273 22.495 2.2494 23.7715C5.71318 25.6066 16.4556 27.1022 22.4011 18.4752Z" fill="#2F2325"/>
<path d="M22.8631 14.1861C22.6395 13.6309 22.8382 13.0045 23.3551 12.6358L23.9326 12.2237C24.5901 11.7547 25.5371 11.8535 26.0478 12.4446V12.4446C26.5585 13.0356 26.4395 13.895 25.782 14.3641L25.2045 14.7761C24.3969 15.3523 23.2124 15.0538 22.8631 14.1861V14.1861Z" fill="#641F76"/>
<path d="M36.4528 12.026C36.8885 11.612 37.5348 11.49 38.0651 11.7217L38.95 12.1083C39.6401 12.4098 39.909 13.2032 39.5506 13.8805V13.8805C39.1923 14.5577 38.3423 14.8623 37.6523 14.5608L36.7673 14.1742C35.9058 13.7978 35.7449 12.6987 36.4528 12.026V12.026Z" fill="#78248E"/>
<path d="M26.2419 42.274C26.8354 39.9694 25.2604 37.6639 22.7241 37.1247C20.1878 36.5854 17.6506 38.0165 17.0571 40.3211C16.4636 42.6258 18.0386 44.9313 20.5749 45.4705C23.1112 46.0098 25.6484 44.5787 26.2419 42.274Z" fill="#F4E0FA"/>
<path d="M47.2778 55.0291L49.0222 56.2119L54.23 49.87L52.4857 48.6873L47.2778 55.0291Z" fill="#2F2325" stroke="#2F2325" stroke-width="0.7" stroke-linecap="round" stroke-linejoin="round"/>
<path d="M52.9379 50.3501L54.2395 48.765L42.8657 41.0532L41.5641 42.6382L52.9379 50.3501Z" fill="#2F2325" stroke="#2F2325" stroke-width="0.7" stroke-linecap="round" stroke-linejoin="round"/>
<path d="M51.779 48.1667C51.9359 47.9756 52.1327 47.8145 52.3582 47.6925C52.5837 47.5705 52.8334 47.4902 53.0931 47.4559C53.3528 47.4217 53.6174 47.4344 53.8717 47.4931C54.126 47.5518 54.3651 47.6556 54.5753 47.7983L54.7268 47.9105C54.9963 48.1339 55.1932 48.4201 55.2961 48.7381C55.3991 49.0561 55.4041 49.3936 55.3106 49.714C55.2172 50.0344 55.0288 50.3254 54.7661 50.5553C54.5033 50.7852 54.1762 50.9452 53.8203 51.018C53.4645 51.0907 53.0935 51.0734 52.7477 50.9679C52.4019 50.8624 52.0945 50.6728 51.8591 50.4196C51.6236 50.1665 51.469 49.8595 51.4122 49.5321C51.3553 49.2047 51.3984 48.8694 51.5366 48.5627C51.5992 48.4222 51.6806 48.2892 51.779 48.1667Z" fill="#F4E0FA" stroke="#2F2325" stroke-width="0.7" stroke-linecap="round" stroke-linejoin="round"/>
<path d="M47.228 53.2337C47.5234 52.835 47.9811 52.5593 48.5002 52.4671C49.0193 52.375 49.5575 52.474 49.9963 52.7424C50.0499 52.7742 50.1012 52.8102 50.1525 52.8462C50.4338 53.0572 50.6461 53.3343 50.7662 53.6472C50.8863 53.9602 50.9096 54.2972 50.8337 54.6214C50.7577 54.9456 50.5854 55.2447 50.3354 55.4861C50.0854 55.7275 49.7674 55.902 49.4158 55.9906C49.0643 56.0792 48.6928 56.0785 48.3417 55.9886C47.9905 55.8987 47.6733 55.723 47.4244 55.4807C47.1755 55.2383 47.0045 54.9386 46.93 54.6141C46.8555 54.2896 46.8804 53.9528 47.0019 53.6402C47.0584 53.4967 47.1343 53.3601 47.228 53.2337V53.2337Z" fill="#F4E0FA" stroke="#2F2325" stroke-width="0.7" stroke-linecap="round" stroke-linejoin="round"/>
<path d="M41.2383 55.5021L44.5175 55.7948L44.6414 54.6484L41.3622 54.3558L41.2383 55.5021Z" fill="#2F2325" stroke="#2F2325" stroke-width="0.7" stroke-linecap="round" stroke-linejoin="round"/>
<path d="M41.0388 54.0277L42.656 54.1717L42.4673 55.9122L40.8501 55.7682C40.5961 55.7457 40.3623 55.6325 40.2002 55.4534C40.0381 55.2743 39.9608 55.0441 39.9855 54.8133V54.8133C40.0109 54.5823 40.136 54.3699 40.3334 54.2226C40.5309 54.0753 40.7846 54.0053 41.0388 54.0277V54.0277Z" fill="#F4E0FA" stroke="#2F2325" stroke-width="0.7" stroke-linecap="round" stroke-linejoin="round"/>
<path d="M44.2779 54.7688C44.534 54.422 44.8629 54.1245 45.2457 53.8933C45.6285 53.6622 46.0577 53.5019 46.5088 53.4216C46.9599 53.3414 47.4239 53.3428 47.8744 53.4257C48.3249 53.5086 48.753 53.6715 49.1341 53.9049C49.2297 53.9642 49.3205 54.0256 49.4091 54.0913C49.9017 54.4612 50.2734 54.9468 50.4835 55.4953C50.6936 56.0437 50.7343 56.634 50.601 57.202C50.4677 57.77 50.1656 58.2939 49.7275 58.7167C49.2894 59.1395 48.7321 59.4451 48.1162 59.6003C47.5003 59.7554 46.8494 59.7542 46.2343 59.5966C45.6191 59.4391 45.0633 59.1313 44.6272 58.7068C44.1911 58.2822 43.8915 57.7572 43.7608 57.1887C43.6302 56.6202 43.6736 56.03 43.8864 55.4824C43.9829 55.2304 44.1144 54.9906 44.2779 54.7688Z" fill="#F4E0FA" stroke="#2F2325" stroke-width="0.7" stroke-linecap="round" stroke-linejoin="round"/>
<path d="M40.5121 58.0677L44.8464 55.1224L45.5432 55.9673L41.2089 58.9105L40.5121 58.0677Z" fill="#2F2325" stroke="#2F2325" stroke-width="0.7" stroke-linecap="round" stroke-linejoin="round"/>
<path d="M40.0624 58.0233L41.2532 57.2038L42.3111 58.4743L41.1204 59.2852C40.9334 59.4124 40.6985 59.4669 40.4674 59.4367C40.2362 59.4065 40.0277 59.2942 39.8877 59.1243V59.1243C39.7534 58.9562 39.6966 58.7472 39.7292 58.5416C39.7618 58.336 39.8814 58.1501 40.0624 58.0233V58.0233Z" fill="#F4E0FA" stroke="#2F2325" stroke-width="0.7" stroke-linecap="round" stroke-linejoin="round"/>
<path d="M46.1094 56.0308C46.1645 55.8133 46.1473 55.5859 46.0599 55.3774C45.9725 55.1688 45.8189 54.9886 45.6187 54.8594C45.4184 54.7303 45.1804 54.6582 44.9349 54.6521C44.6894 54.6461 44.4475 54.7064 44.2398 54.8255C44.0321 54.9445 43.868 55.117 43.7684 55.3209C43.6687 55.5248 43.6379 55.7511 43.6799 55.9709C43.7219 56.1908 43.8349 56.3943 44.0044 56.5558C44.1739 56.7172 44.3924 56.8293 44.6321 56.8777C44.9515 56.9423 45.2861 56.8895 45.5628 56.7309C45.8396 56.5722 46.0361 56.3206 46.1094 56.0308Z" fill="#F4E0FA" stroke="#2F2325" stroke-width="0.7" stroke-linecap="round" stroke-linejoin="round"/>
<path d="M48.4071 61.0279L49.0503 56.9879L50.0033 57.1107L49.3625 61.1507L48.4071 61.0279Z" fill="#2F2325" stroke="#2F2325" stroke-width="0.7" stroke-linecap="round" stroke-linejoin="round"/>
<path d="M48.1158 61.2418L48.2906 60.1301L49.7377 60.3186L49.5629 61.4281C49.5495 61.5146 49.5174 61.5978 49.4686 61.6731C49.4197 61.7483 49.355 61.814 49.2782 61.8665C49.2014 61.919 49.1139 61.9573 49.0208 61.979C48.9277 62.0008 48.8308 62.0057 48.7357 61.9935V61.9935C48.5439 61.9683 48.3709 61.875 48.2547 61.7341C48.1385 61.5932 48.0885 61.4161 48.1158 61.2418V61.2418Z" fill="#F4E0FA" stroke="#2F2325" stroke-width="0.7" stroke-linecap="round" stroke-linejoin="round"/>
<path d="M50.3762 56.846C50.2665 56.6907 50.1086 56.5684 49.9224 56.4945C49.7363 56.4207 49.5302 56.3987 49.3302 56.4312C49.1303 56.4637 48.9454 56.5493 48.799 56.6773C48.6526 56.8052 48.5512 56.9697 48.5076 57.15C48.4641 57.3303 48.4802 57.5182 48.5542 57.6902C48.6281 57.8621 48.7564 58.0102 48.9229 58.1159C49.0895 58.2216 49.2867 58.2801 49.4898 58.2839C49.6929 58.2878 49.8927 58.2369 50.064 58.1376C50.2937 58.0038 50.4556 57.7927 50.5141 57.5505C50.5727 57.3083 50.5231 57.055 50.3762 56.846V56.846Z" fill="#F4E0FA" stroke="#2F2325" stroke-width="0.7" stroke-linecap="round" stroke-linejoin="round"/>
<path d="M44.1171 60.4901L47.0066 56.3315L47.9876 56.8905L45.1004 61.0512L44.1171 60.4901Z" fill="#2F2325" stroke="#2F2325" stroke-width="0.7" stroke-linecap="round" stroke-linejoin="round"/>
<path d="M43.6814 60.5917L44.4713 59.4483L45.965 60.2953L45.1727 61.4408C45.048 61.62 44.8504 61.7471 44.6229 61.7943C44.3954 61.8416 44.1566 61.805 43.9587 61.6928V61.6928C43.7616 61.5799 43.6218 61.4007 43.5698 61.1943C43.5178 60.9879 43.5579 60.7713 43.6814 60.5917V60.5917Z" fill="#F4E0FA" stroke="#2F2325" stroke-width="0.7" stroke-linecap="round" stroke-linejoin="round"/>
<path d="M48.5469 56.7677C48.5124 56.5472 48.4065 56.3409 48.2428 56.1752C48.0791 56.0094 47.8649 55.8916 47.6273 55.8366C47.3898 55.7816 47.1397 55.792 46.9086 55.8664C46.6776 55.9408 46.4761 56.0758 46.3296 56.2545C46.1832 56.4331 46.0984 56.6472 46.0861 56.8696C46.0738 57.092 46.1344 57.3128 46.2604 57.5039C46.3863 57.695 46.5719 57.8477 46.7935 57.9429C47.0151 58.038 47.2629 58.0711 47.5053 58.0381C47.8286 57.9946 48.1197 57.8365 48.3149 57.5984C48.5102 57.3603 48.5936 57.0616 48.5469 56.7677V56.7677Z" fill="#F4E0FA" stroke="#2F2325" stroke-width="0.7" stroke-linecap="round" stroke-linejoin="round"/>
<path d="M22.5258 43.2141C23.691 42.7725 24.2416 41.5562 23.7556 40.4974C23.2696 39.4386 21.9311 38.9382 20.7658 39.3798C19.6006 39.8214 19.05 41.0377 19.536 42.0965C20.022 43.1553 21.3605 43.6557 22.5258 43.2141Z" fill="#2F2325" stroke="#2F2325" stroke-width="1.79925" stroke-linecap="round" stroke-linejoin="round"/>
<path d="M43.1939 44.9756C45.3841 43.6944 46.0167 41.0425 44.6068 39.0523C43.1969 37.0621 40.2784 36.4873 38.0881 37.7684C35.8979 39.0495 35.2653 41.7015 36.6752 43.6917C38.0851 45.6819 41.0036 46.2567 43.1939 44.9756Z" fill="#F4E0FA"/>
<path d="M42.7208 42.2395C43.2471 41.1968 42.7436 39.9638 41.596 39.4855C40.4485 39.0072 39.0915 39.4648 38.5651 40.5075C38.0388 41.5503 38.5423 42.7833 39.6899 43.2616C40.8374 43.7399 42.1944 43.2823 42.7208 42.2395Z" fill="#2F2325" stroke="#2F2325" stroke-width="1.79925" stroke-linecap="round" stroke-linejoin="round"/>
<path d="M41.9214 32.8046C43.5483 30.9512 44.5665 28.7181 44.8588 26.3622C45.1511 24.0063 44.7056 21.6233 43.5737 19.4873C42.4417 17.3512 40.6693 15.5488 38.4601 14.2874C36.2509 13.026 33.6948 12.3568 31.0857 12.3568C28.4765 12.3568 25.9204 13.026 23.7112 14.2874C21.5021 15.5488 19.7296 17.3512 18.5976 19.4873C17.4657 21.6233 17.0202 24.0063 17.3125 26.3622C17.6048 28.7181 18.623 30.9512 20.25 32.8046H41.9214Z" fill="#F4E0FA"/>
<path d="M39.5677 20.1976H22.2632C21.2105 20.1976 20.3571 20.973 20.3571 21.9296V27.5027C20.3571 28.4593 21.2105 29.2347 22.2632 29.2347H39.5677C40.6204 29.2347 41.4738 28.4593 41.4738 27.5027V21.9296C41.4738 20.973 40.6204 20.1976 39.5677 20.1976Z" fill="#F3CBFE"/>
<path d="M33.129 23.5712C33.2619 23.2311 33.504 22.9357 33.8236 22.7236C34.1433 22.5115 34.5255 22.3927 34.9203 22.3826C35.3151 22.3726 35.704 22.4719 36.0361 22.6674C36.3681 22.8629 36.6278 23.1456 36.7811 23.4784" stroke="#2F2325" stroke-linecap="round" stroke-linejoin="round"/>
<path d="M24.7816 23.5712C24.9145 23.2311 25.1566 22.9357 25.4762 22.7236C25.7959 22.5115 26.1781 22.3927 26.5729 22.3826C26.9677 22.3726 27.3566 22.4719 27.6887 22.6674C28.0207 22.8629 28.2804 23.1456 28.4336 23.4784" stroke="#2F2325" stroke-linecap="round" stroke-linejoin="round"/>
<path d="M27.2759 27.1981C27.9561 27.1793 32.779 27.1981 33.6562 27.1981" stroke="#2F2325" stroke-linecap="round" stroke-linejoin="round"/>
<path d="M31.1392 18.4125C32.2008 18.4128 33.2454 18.1714 34.178 17.7106C35.1105 17.2498 35.9012 16.584 36.4779 15.7742L37.7921 13.9257C35.7095 12.8806 33.3659 12.3404 30.9868 12.3571C28.6078 12.3738 26.2736 12.9468 24.209 14.021L26.1874 16.2528C26.7826 16.9263 27.5364 17.4699 28.3934 17.8437C29.2503 18.2175 30.1887 18.4119 31.1392 18.4125Z" fill="#F3CBFE"/>
<path d="M40.391 35.8687C37.4246 35.261 31.0024 35.0429 31.0024 35.0429C29.4552 35.0874 25.1488 35.2547 22.1824 35.8708C21.6208 35.9868 21.1322 36.2992 20.8225 36.7404C20.5127 37.1816 20.4069 37.7159 20.5279 38.2275L23.2753 49.9072C23.4103 50.4735 23.7542 50.9809 24.2501 51.3453C24.746 51.7096 25.364 51.9089 26.0017 51.9103H36.5927C37.2304 51.9089 37.8484 51.7096 38.3443 51.3453C38.8402 50.9809 39.1841 50.4735 39.3191 49.9072L42.0642 38.2275C42.1847 37.7133 42.0764 37.1766 41.7629 36.7346C41.4495 36.2927 40.9563 35.9814 40.391 35.8687Z" fill="#F4E0FA"/>
<path d="M39.0395 35.6443C35.8214 35.2081 31.0094 35.0429 31.0094 35.0429C28.6533 35.1043 26.3026 35.281 23.9674 35.5723L27.0806 51.9103H35.5418L39.0395 35.6443Z" fill="#F3CBFE"/>
<path d="M33.7871 38.5939H28.6325C27.5798 38.5939 26.7264 39.3693 26.7264 40.3259V42.6127C26.7264 43.5693 27.5798 44.3448 28.6325 44.3448H33.7871C34.8398 44.3448 35.6932 43.5693 35.6932 42.6127V40.3259C35.6932 39.3693 34.8398 38.5939 33.7871 38.5939Z" fill="#F3CBFE"/>
<path d="M29.7044 40.9633H28.2527V42.2824H29.7044V40.9633Z" fill="#8A19A8" stroke="#2F2325" stroke-width="0.8" stroke-linecap="round" stroke-linejoin="round"/>
<path d="M31.9345 40.9633H30.4828V42.2824H31.9345V40.9633Z" fill="#8A19A8" stroke="#2F2325" stroke-width="0.8" stroke-linecap="round" stroke-linejoin="round"/>
<path d="M34.1668 40.9633H32.7151V42.2824H34.1668V40.9633Z" fill="#8A19A8" stroke="#2F2325" stroke-width="0.8" stroke-linecap="round" stroke-linejoin="round"/>
<path d="M84 40.6016C84 41.7604 83.7786 42.8477 83.3359 43.8633C82.8932 44.8789 82.2878 45.7708 81.5195 46.5391C80.7643 47.2943 79.8789 47.8932 78.8633 48.3359C77.8477 48.7786 76.7604 49 75.6016 49H61.5977V20.9922H75.6016C76.7604 20.9922 77.8477 21.2135 78.8633 21.6562C79.8789 22.099 80.7643 22.7044 81.5195 23.4727C82.2878 24.2279 82.8932 25.1133 83.3359 26.1289C83.7786 27.1445 84 28.2318 84 29.3906C84 29.9115 83.9284 30.4453 83.7852 30.9922C83.6419 31.5391 83.4401 32.0664 83.1797 32.5742C82.9193 33.082 82.6068 33.5443 82.2422 33.9609C81.8776 34.3776 81.474 34.7227 81.0312 34.9961C81.487 35.2435 81.8971 35.582 82.2617 36.0117C82.6263 36.4284 82.9388 36.8906 83.1992 37.3984C83.4596 37.9062 83.6549 38.4401 83.7852 39C83.9284 39.5469 84 40.0807 84 40.6016ZM67.2031 43.3945H75.6016C75.9922 43.3945 76.3568 43.3229 76.6953 43.1797C77.0339 43.0365 77.3268 42.8411 77.5742 42.5938C77.8346 42.3333 78.0365 42.0339 78.1797 41.6953C78.3229 41.3568 78.3945 40.9922 78.3945 40.6016C78.3945 40.2109 78.3229 39.8464 78.1797 39.5078C78.0365 39.1693 77.8346 38.8763 77.5742 38.6289C77.3268 38.3685 77.0339 38.1667 76.6953 38.0234C76.3568 37.8802 75.9922 37.8086 75.6016 37.8086H67.2031V43.3945ZM67.2031 32.2031H75.6016C75.9922 32.2031 76.3568 32.1315 76.6953 31.9883C77.0339 31.8451 77.3268 31.6497 77.5742 31.4023C77.8346 31.1419 78.0365 30.8424 78.1797 30.5039C78.3229 30.1523 78.3945 29.7812 78.3945 29.3906C78.3945 29 78.3229 28.6354 78.1797 28.2969C78.0365 27.9583 77.8346 27.6654 77.5742 27.418C77.3268 27.1576 77.0339 26.9557 76.6953 26.8125C76.3568 26.6693 75.9922 26.5977 75.6016 26.5977H67.2031V32.2031ZM107.926 49H106.637L104.566 46.1289C104.059 46.5846 103.518 47.0143 102.945 47.418C102.385 47.8086 101.793 48.1536 101.168 48.4531C100.543 48.7396 99.8984 48.9674 99.2344 49.1367C98.5833 49.306 97.9193 49.3906 97.2422 49.3906C95.7708 49.3906 94.3841 49.1432 93.082 48.6484C91.793 48.1536 90.6602 47.4375 89.6836 46.5C88.7201 45.5495 87.9583 44.3906 87.3984 43.0234C86.8385 41.6562 86.5586 40.1003 86.5586 38.3555C86.5586 36.7279 86.8385 35.237 87.3984 33.8828C87.9583 32.5156 88.7201 31.3438 89.6836 30.3672C90.6602 29.3906 91.793 28.6354 93.082 28.1016C94.3841 27.5547 95.7708 27.2812 97.2422 27.2812C97.9193 27.2812 98.5898 27.3659 99.2539 27.5352C99.918 27.7044 100.562 27.9388 101.188 28.2383C101.812 28.5378 102.405 28.8893 102.965 29.293C103.538 29.6966 104.072 30.1328 104.566 30.6016L106.637 28.1211H107.926V49ZM102.555 38.3555C102.555 37.6263 102.411 36.9232 102.125 36.2461C101.852 35.556 101.474 34.9505 100.992 34.4297C100.51 33.8958 99.944 33.4727 99.293 33.1602C98.6549 32.8346 97.9714 32.6719 97.2422 32.6719C96.513 32.6719 95.8229 32.7956 95.1719 33.043C94.5339 33.2904 93.974 33.6549 93.4922 34.1367C93.0234 34.6185 92.6523 35.2174 92.3789 35.9336C92.1055 36.6367 91.9688 37.444 91.9688 38.3555C91.9688 39.2669 92.1055 40.0807 92.3789 40.7969C92.6523 41.5 93.0234 42.0924 93.4922 42.5742C93.974 43.056 94.5339 43.4206 95.1719 43.668C95.8229 43.9154 96.513 44.0391 97.2422 44.0391C97.9714 44.0391 98.6549 43.8828 99.293 43.5703C99.944 43.2448 100.51 42.8216 100.992 42.3008C101.474 41.7669 101.852 41.1615 102.125 40.4844C102.411 39.7943 102.555 39.0846 102.555 38.3555ZM117.379 49H112.008V19.7617H117.379V49ZM126.832 49H121.461V19.7617H126.832V49ZM139.234 43.8828C139.443 43.9479 139.651 43.9935 139.859 44.0195C140.068 44.0326 140.276 44.0391 140.484 44.0391C141.005 44.0391 141.507 43.9674 141.988 43.8242C142.47 43.681 142.919 43.4792 143.336 43.2188C143.766 42.9453 144.143 42.6198 144.469 42.2422C144.807 41.8516 145.081 41.4219 145.289 40.9531L149.195 44.8789C148.701 45.582 148.128 46.2135 147.477 46.7734C146.839 47.3333 146.142 47.8086 145.387 48.1992C144.645 48.5898 143.857 48.8828 143.023 49.0781C142.203 49.2865 141.357 49.3906 140.484 49.3906C139.013 49.3906 137.626 49.1172 136.324 48.5703C135.035 48.0234 133.902 47.2617 132.926 46.2852C131.962 45.3086 131.201 44.1497 130.641 42.8086C130.081 41.4544 129.801 39.9701 129.801 38.3555C129.801 36.7018 130.081 35.1914 130.641 33.8242C131.201 32.457 131.962 31.2917 132.926 30.3281C133.902 29.3646 135.035 28.6159 136.324 28.082C137.626 27.5482 139.013 27.2812 140.484 27.2812C141.357 27.2812 142.21 27.3854 143.043 27.5938C143.876 27.8021 144.664 28.1016 145.406 28.4922C146.161 28.8828 146.865 29.3646 147.516 29.9375C148.167 30.4974 148.74 31.1289 149.234 31.832L139.234 43.8828ZM141.969 32.8867C141.721 32.7956 141.474 32.737 141.227 32.7109C140.992 32.6849 140.745 32.6719 140.484 32.6719C139.755 32.6719 139.065 32.8086 138.414 33.082C137.776 33.3424 137.216 33.7201 136.734 34.2148C136.266 34.7096 135.895 35.3086 135.621 36.0117C135.348 36.7018 135.211 37.4831 135.211 38.3555C135.211 38.5508 135.217 38.7721 135.23 39.0195C135.257 39.2669 135.289 39.5208 135.328 39.7812C135.38 40.0286 135.439 40.2695 135.504 40.5039C135.569 40.7383 135.654 40.9466 135.758 41.1289L141.969 32.8867ZM186.109 40.6016C186.109 41.7604 185.888 42.8477 185.445 43.8633C185.003 44.8789 184.397 45.7708 183.629 46.5391C182.874 47.2943 181.988 47.8932 180.973 48.3359C179.957 48.7786 178.87 49 177.711 49H163.707V20.9922H177.711C178.87 20.9922 179.957 21.2135 180.973 21.6562C181.988 22.099 182.874 22.7044 183.629 23.4727C184.397 24.2279 185.003 25.1133 185.445 26.1289C185.888 27.1445 186.109 28.2318 186.109 29.3906C186.109 29.9115 186.038 30.4453 185.895 30.9922C185.751 31.5391 185.549 32.0664 185.289 32.5742C185.029 33.082 184.716 33.5443 184.352 33.9609C183.987 34.3776 183.583 34.7227 183.141 34.9961C183.596 35.2435 184.007 35.582 184.371 36.0117C184.736 36.4284 185.048 36.8906 185.309 37.3984C185.569 37.9062 185.764 38.4401 185.895 39C186.038 39.5469 186.109 40.0807 186.109 40.6016ZM169.312 43.3945H177.711C178.102 43.3945 178.466 43.3229 178.805 43.1797C179.143 43.0365 179.436 42.8411 179.684 42.5938C179.944 42.3333 180.146 42.0339 180.289 41.6953C180.432 41.3568 180.504 40.9922 180.504 40.6016C180.504 40.2109 180.432 39.8464 180.289 39.5078C180.146 39.1693 179.944 38.8763 179.684 38.6289C179.436 38.3685 179.143 38.1667 178.805 38.0234C178.466 37.8802 178.102 37.8086 177.711 37.8086H169.312V43.3945ZM169.312 32.2031H177.711C178.102 32.2031 178.466 32.1315 178.805 31.9883C179.143 31.8451 179.436 31.6497 179.684 31.4023C179.944 31.1419 180.146 30.8424 180.289 30.5039C180.432 30.1523 180.504 29.7812 180.504 29.3906C180.504 29 180.432 28.6354 180.289 28.2969C180.146 27.9583 179.944 27.6654 179.684 27.418C179.436 27.1576 179.143 26.9557 178.805 26.8125C178.466 26.6693 178.102 26.5977 177.711 26.5977H169.312V32.2031ZM209.996 38.3555C209.996 39.918 209.716 41.3763 209.156 42.7305C208.596 44.0716 207.835 45.237 206.871 46.2266C205.908 47.2031 204.775 47.9779 203.473 48.5508C202.184 49.1107 200.797 49.3906 199.312 49.3906C197.841 49.3906 196.454 49.1107 195.152 48.5508C193.863 47.9779 192.73 47.2031 191.754 46.2266C190.79 45.237 190.029 44.0716 189.469 42.7305C188.909 41.3763 188.629 39.918 188.629 38.3555C188.629 36.7669 188.909 35.2956 189.469 33.9414C190.029 32.5872 190.79 31.4219 191.754 30.4453C192.73 29.4557 193.863 28.681 195.152 28.1211C196.454 27.5612 197.841 27.2812 199.312 27.2812C200.797 27.2812 202.184 27.5482 203.473 28.082C204.775 28.6029 205.908 29.3516 206.871 30.3281C207.835 31.2917 208.596 32.457 209.156 33.8242C209.716 35.1784 209.996 36.6888 209.996 38.3555ZM204.625 38.3555C204.625 37.4961 204.482 36.7214 204.195 36.0312C203.922 35.3281 203.544 34.7292 203.062 34.2344C202.581 33.7266 202.014 33.3424 201.363 33.082C200.725 32.8086 200.042 32.6719 199.312 32.6719C198.583 32.6719 197.893 32.8086 197.242 33.082C196.604 33.3424 196.044 33.7266 195.562 34.2344C195.094 34.7292 194.723 35.3281 194.449 36.0312C194.176 36.7214 194.039 37.4961 194.039 38.3555C194.039 39.1628 194.176 39.9115 194.449 40.6016C194.723 41.2917 195.094 41.8906 195.562 42.3984C196.044 42.9062 196.604 43.3099 197.242 43.6094C197.893 43.8958 198.583 44.0391 199.312 44.0391C200.042 44.0391 200.725 43.9023 201.363 43.6289C202.014 43.3555 202.581 42.9714 203.062 42.4766C203.544 41.9818 203.922 41.3828 204.195 40.6797C204.482 39.9766 204.625 39.2018 204.625 38.3555ZM223.277 49C221.988 49 220.777 48.7591 219.645 48.2773C218.512 47.7826 217.516 47.112 216.656 46.2656C215.81 45.4062 215.139 44.4102 214.645 43.2773C214.163 42.1445 213.922 40.9336 213.922 39.6445V33.4336H211.324V28.1211H213.922V19.7617H219.234V28.1211H227.32V33.4336H219.234V39.6445C219.234 40.2044 219.339 40.7318 219.547 41.2266C219.755 41.7083 220.042 42.1315 220.406 42.4961C220.771 42.8607 221.201 43.1536 221.695 43.375C222.19 43.5833 222.717 43.6875 223.277 43.6875H227.32V49H223.277Z" fill="white"/>
</svg>
